<svg width="34" height="34" viewBox="0 0 34 34" fill="none" xmlns="http://www.w3.org/2000/svg">
<rect width="34" height="34" rx="17" fill="#8D1B3D"/>
<path d="M15.98 9.52C15.98 8.95667 16.4367 8.5 17 8.5C17.5633 8.5 18.02 8.95667 18.02 9.52V24.48C18.02 25.0433 17.5633 25.5 17 25.5C16.4367 25.5 15.98 25.0433 15.98 24.48V9.52Z" fill="white"/>
<path d="M9.52 18.02C8.95667 18.02 8.5 17.5633 8.5 17C8.5 16.4367 8.95667 15.98 9.52 15.98H24.48C25.0433 15.98 25.5 16.4367 25.5 17C25.5 17.5633 25.0433 18.02 24.48 18.02H9.52Z" fill="white"/>
</svg>
