<svg width="22" height="22" viewBox="0 0 22 22" fill="none" xmlns="http://www.w3.org/2000/svg">
<path d="M2.75 5.84375C2.75 4.70615 3.6749 3.78125 4.8125 3.78125H9.06963C9.68516 3.78125 10.2749 4.02617 10.71 4.46123L12.0925 5.84375H17.1875C18.3251 5.84375 19.25 6.76865 19.25 7.90625V16.1562C19.25 17.2938 18.3251 18.2188 17.1875 18.2188H4.8125C3.6749 18.2188 2.75 17.2938 2.75 16.1562V5.84375ZM4.8125 5.32812C4.52891 5.32812 4.29688 5.56016 4.29688 5.84375V16.1562C4.29688 16.4398 4.52891 16.6719 4.8125 16.6719H17.1875C17.4711 16.6719 17.7031 16.4398 17.7031 16.1562V7.90625C17.7031 7.62266 17.4711 7.39062 17.1875 7.39062H11.9861C11.6445 7.39062 11.3158 7.25527 11.0741 7.01357L9.61748 5.55371C9.47246 5.40869 9.27588 5.32812 9.06963 5.32812H4.8125Z" fill="black"/>
</svg>
