<svg width="34" height="34" viewBox="0 0 34 34" fill="none" xmlns="http://www.w3.org/2000/svg">
<rect width="34" height="34" rx="17" fill="#8D1B3D"/>
<path d="M17.7529 9.87476C17.3378 9.45972 16.6638 9.45972 16.2488 9.87476L10.9363 15.1873C10.5212 15.6023 10.5212 16.2763 10.9363 16.6914C11.3513 17.1064 12.0253 17.1064 12.4404 16.6914L15.94 13.1884V23.3751C15.94 23.9628 16.4148 24.4376 17.0025 24.4376C17.5902 24.4376 18.065 23.9628 18.065 23.3751V13.1917L21.5646 16.688C21.9796 17.1031 22.6537 17.1031 23.0687 16.688C23.4837 16.273 23.4837 15.599 23.0687 15.1839L17.7562 9.87144L17.7529 9.87476Z" fill="white"/>
</svg>
